<mxfile host="app.diagrams.net" agent="Mozilla/5.0 (Macintosh; Intel Mac OS X 10_15_7) AppleWebKit/537.36 (KHTML, like Gecko) Chrome/131.0.0.0 Safari/537.36" version="25.0.3" pages="3">
  <diagram name="事件" id="Tm8wjcbFjeaA6EBHHuMP">
    <mxGraphModel dx="1143" dy="615" grid="1" gridSize="10" guides="1" tooltips="1" connect="1" arrows="1" fold="1" page="1" pageScale="1" pageWidth="827" pageHeight="1169" math="0" shadow="0">
      <root>
        <mxCell id="0" />
        <mxCell id="1" parent="0" />
        <mxCell id="0bBEa5JM60ahN9PU3Rlk-1" value="" style="group;movable=0;resizable=0;rotatable=0;deletable=0;editable=0;locked=1;connectable=0;" parent="1" vertex="1" connectable="0">
          <mxGeometry x="110" y="30" width="480" height="160" as="geometry" />
        </mxCell>
        <mxCell id="0bBEa5JM60ahN9PU3Rlk-2" value="事件" style="rounded=0;whiteSpace=wrap;html=1;fillColor=#f0a30a;strokeColor=#BD7000;fontColor=#000000;" parent="0bBEa5JM60ahN9PU3Rlk-1" vertex="1">
          <mxGeometry width="120" height="60" as="geometry" />
        </mxCell>
        <mxCell id="0bBEa5JM60ahN9PU3Rlk-3" value="聚合" style="rounded=0;whiteSpace=wrap;html=1;fillColor=#fff2cc;strokeColor=#d6b656;" parent="0bBEa5JM60ahN9PU3Rlk-1" vertex="1">
          <mxGeometry x="140" width="120" height="60" as="geometry" />
        </mxCell>
        <mxCell id="0bBEa5JM60ahN9PU3Rlk-4" value="命令" style="rounded=0;whiteSpace=wrap;html=1;fillColor=#1ba1e2;strokeColor=#006EAF;fontColor=#ffffff;" parent="0bBEa5JM60ahN9PU3Rlk-1" vertex="1">
          <mxGeometry x="10" y="80" width="80" height="80" as="geometry" />
        </mxCell>
        <mxCell id="0bBEa5JM60ahN9PU3Rlk-5" value="外部系统" style="rounded=0;whiteSpace=wrap;html=1;fillColor=#fad9d5;strokeColor=#ae4132;" parent="0bBEa5JM60ahN9PU3Rlk-1" vertex="1">
          <mxGeometry x="100" y="90" width="120" height="60" as="geometry" />
        </mxCell>
        <mxCell id="0bBEa5JM60ahN9PU3Rlk-6" value="参与者" style="rounded=0;whiteSpace=wrap;html=1;fillColor=#ffff88;strokeColor=#36393d;" parent="0bBEa5JM60ahN9PU3Rlk-1" vertex="1">
          <mxGeometry x="290" width="56" height="80" as="geometry" />
        </mxCell>
        <mxCell id="0bBEa5JM60ahN9PU3Rlk-7" value="策略" style="rounded=0;whiteSpace=wrap;html=1;fillColor=#e1d5e7;strokeColor=#9673a6;" parent="0bBEa5JM60ahN9PU3Rlk-1" vertex="1">
          <mxGeometry x="244" y="90" width="120" height="60" as="geometry" />
        </mxCell>
        <mxCell id="0bBEa5JM60ahN9PU3Rlk-8" value="读模型" style="rounded=0;whiteSpace=wrap;html=1;fillColor=#d5e8d4;strokeColor=#82b366;" parent="0bBEa5JM60ahN9PU3Rlk-1" vertex="1">
          <mxGeometry x="380" width="100" height="100" as="geometry" />
        </mxCell>
        <mxCell id="0bBEa5JM60ahN9PU3Rlk-9" value="&amp;nbsp;展会已创建" style="rounded=0;whiteSpace=wrap;html=1;fillColor=#f0a30a;strokeColor=#BD7000;fontColor=#000000;" parent="1" vertex="1">
          <mxGeometry x="80" y="330" width="120" height="60" as="geometry" />
        </mxCell>
        <mxCell id="0bBEa5JM60ahN9PU3Rlk-10" value="展会已设置模块服务&lt;div&gt;(观众、展商、媒体、嘉宾)&lt;/div&gt;" style="rounded=0;whiteSpace=wrap;html=1;fillColor=#f0a30a;strokeColor=#BD7000;fontColor=#000000;" parent="1" vertex="1">
          <mxGeometry x="230" y="330" width="120" height="60" as="geometry" />
        </mxCell>
        <mxCell id="0bBEa5JM60ahN9PU3Rlk-11" value="展会已发布" style="rounded=0;whiteSpace=wrap;html=1;fillColor=#f0a30a;strokeColor=#BD7000;fontColor=#000000;" parent="1" vertex="1">
          <mxGeometry x="380" y="330" width="120" height="60" as="geometry" />
        </mxCell>
        <mxCell id="0bBEa5JM60ahN9PU3Rlk-12" value="展会已关闭" style="rounded=0;whiteSpace=wrap;html=1;fillColor=#f0a30a;strokeColor=#BD7000;fontColor=#000000;" parent="1" vertex="1">
          <mxGeometry x="520" y="330" width="120" height="60" as="geometry" />
        </mxCell>
        <mxCell id="0bBEa5JM60ahN9PU3Rlk-13" value="&amp;nbsp;观众服务已设置产品" style="rounded=0;whiteSpace=wrap;html=1;fillColor=#f0a30a;strokeColor=#BD7000;fontColor=#000000;" parent="1" vertex="1">
          <mxGeometry x="210" y="440" width="120" height="60" as="geometry" />
        </mxCell>
        <mxCell id="0bBEa5JM60ahN9PU3Rlk-14" value="&amp;nbsp;观众服务已开启" style="rounded=0;whiteSpace=wrap;html=1;fillColor=#f0a30a;strokeColor=#BD7000;fontColor=#000000;" parent="1" vertex="1">
          <mxGeometry x="660" y="440" width="120" height="60" as="geometry" />
        </mxCell>
        <mxCell id="0bBEa5JM60ahN9PU3Rlk-16" value="&amp;nbsp;观众服务已设置报名表" style="rounded=0;whiteSpace=wrap;html=1;fillColor=#f0a30a;strokeColor=#BD7000;fontColor=#000000;" parent="1" vertex="1">
          <mxGeometry x="354" y="440" width="120" height="60" as="geometry" />
        </mxCell>
        <mxCell id="0bBEa5JM60ahN9PU3Rlk-17" value="&amp;nbsp;报名表已设置选项" style="rounded=0;whiteSpace=wrap;html=1;fillColor=#f0a30a;strokeColor=#BD7000;fontColor=#000000;" parent="1" vertex="1">
          <mxGeometry x="500" y="440" width="120" height="60" as="geometry" />
        </mxCell>
        <mxCell id="0bBEa5JM60ahN9PU3Rlk-18" value="观众提交报名" style="rounded=0;whiteSpace=wrap;html=1;fillColor=#f0a30a;strokeColor=#BD7000;fontColor=#000000;" parent="1" vertex="1">
          <mxGeometry x="240" y="1070" width="120" height="60" as="geometry" />
        </mxCell>
        <mxCell id="0bBEa5JM60ahN9PU3Rlk-19" value="管理员工审核报名" style="rounded=0;whiteSpace=wrap;html=1;fillColor=#f0a30a;strokeColor=#BD7000;fontColor=#000000;" parent="1" vertex="1">
          <mxGeometry x="1110" y="1070" width="120" height="60" as="geometry" />
        </mxCell>
        <mxCell id="0bBEa5JM60ahN9PU3Rlk-20" value="审核分发二维码" style="rounded=0;whiteSpace=wrap;html=1;fillColor=#f0a30a;strokeColor=#BD7000;fontColor=#000000;" parent="1" vertex="1">
          <mxGeometry x="1290" y="1070" width="120" height="60" as="geometry" />
        </mxCell>
        <mxCell id="0bBEa5JM60ahN9PU3Rlk-21" value="审核同步至票证服务" style="rounded=0;whiteSpace=wrap;html=1;fillColor=#f0a30a;strokeColor=#BD7000;fontColor=#000000;" parent="1" vertex="1">
          <mxGeometry x="1510" y="1060" width="120" height="60" as="geometry" />
        </mxCell>
        <mxCell id="0bBEa5JM60ahN9PU3Rlk-22" value="创建支付订单" style="rounded=0;whiteSpace=wrap;html=1;fillColor=#f0a30a;strokeColor=#BD7000;fontColor=#000000;" parent="1" vertex="1">
          <mxGeometry x="400" y="1070" width="120" height="60" as="geometry" />
        </mxCell>
        <mxCell id="0bBEa5JM60ahN9PU3Rlk-23" value="&amp;nbsp;观众服务已关闭" style="rounded=0;whiteSpace=wrap;html=1;fillColor=#f0a30a;strokeColor=#BD7000;fontColor=#000000;" parent="1" vertex="1">
          <mxGeometry x="800" y="440" width="120" height="60" as="geometry" />
        </mxCell>
        <mxCell id="0bBEa5JM60ahN9PU3Rlk-24" value="观众已设置模块服务&lt;div&gt;（二要素、三要素、人像对比、代人注册）&lt;/div&gt;" style="rounded=0;whiteSpace=wrap;html=1;fillColor=#f0a30a;strokeColor=#BD7000;fontColor=#000000;" parent="1" vertex="1">
          <mxGeometry x="70" y="440" width="120" height="60" as="geometry" />
        </mxCell>
        <mxCell id="0bBEa5JM60ahN9PU3Rlk-25" value="门票已开启&lt;div&gt;（设置票证系统接口参数）&lt;/div&gt;" style="rounded=0;whiteSpace=wrap;html=1;fillColor=#f0a30a;strokeColor=#BD7000;fontColor=#000000;" parent="1" vertex="1">
          <mxGeometry x="80" y="850" width="120" height="60" as="geometry" />
        </mxCell>
        <mxCell id="0bBEa5JM60ahN9PU3Rlk-26" value="支付已配置微信" style="rounded=0;whiteSpace=wrap;html=1;fillColor=#f0a30a;strokeColor=#BD7000;fontColor=#000000;" parent="1" vertex="1">
          <mxGeometry x="75" y="580" width="120" height="60" as="geometry" />
        </mxCell>
        <mxCell id="0bBEa5JM60ahN9PU3Rlk-27" value="支付已配置PayPal" style="rounded=0;whiteSpace=wrap;html=1;fillColor=#f0a30a;strokeColor=#BD7000;fontColor=#000000;" parent="1" vertex="1">
          <mxGeometry x="234" y="585" width="120" height="60" as="geometry" />
        </mxCell>
        <mxCell id="0bBEa5JM60ahN9PU3Rlk-28" value="门票数据同步" style="rounded=0;whiteSpace=wrap;html=1;fillColor=#f0a30a;strokeColor=#BD7000;fontColor=#000000;" parent="1" vertex="1">
          <mxGeometry x="230" y="850" width="120" height="60" as="geometry" />
        </mxCell>
        <mxCell id="0bBEa5JM60ahN9PU3Rlk-29" value="门票数据下单" style="rounded=0;whiteSpace=wrap;html=1;fillColor=#f0a30a;strokeColor=#BD7000;fontColor=#000000;" parent="1" vertex="1">
          <mxGeometry x="380" y="850" width="120" height="60" as="geometry" />
        </mxCell>
        <mxCell id="0bBEa5JM60ahN9PU3Rlk-30" value="门票数据核销" style="rounded=0;whiteSpace=wrap;html=1;fillColor=#f0a30a;strokeColor=#BD7000;fontColor=#000000;" parent="1" vertex="1">
          <mxGeometry x="530" y="850" width="120" height="60" as="geometry" />
        </mxCell>
        <mxCell id="0bBEa5JM60ahN9PU3Rlk-31" value="门票证关闭" style="rounded=0;whiteSpace=wrap;html=1;fillColor=#f0a30a;strokeColor=#BD7000;fontColor=#000000;" parent="1" vertex="1">
          <mxGeometry x="680" y="850" width="120" height="60" as="geometry" />
        </mxCell>
        <mxCell id="0bBEa5JM60ahN9PU3Rlk-32" value="订单已支付" style="rounded=0;whiteSpace=wrap;html=1;fillColor=#f0a30a;strokeColor=#BD7000;fontColor=#000000;" parent="1" vertex="1">
          <mxGeometry x="560" y="1070" width="120" height="60" as="geometry" />
        </mxCell>
        <mxCell id="0bBEa5JM60ahN9PU3Rlk-33" value="订单已取消" style="rounded=0;whiteSpace=wrap;html=1;fillColor=#f0a30a;strokeColor=#BD7000;fontColor=#000000;" parent="1" vertex="1">
          <mxGeometry x="710" y="1070" width="120" height="60" as="geometry" />
        </mxCell>
        <mxCell id="0bBEa5JM60ahN9PU3Rlk-35" value="制证模板已设置" style="rounded=0;whiteSpace=wrap;html=1;fillColor=#f0a30a;strokeColor=#BD7000;fontColor=#000000;" parent="1" vertex="1">
          <mxGeometry x="234" y="970" width="120" height="60" as="geometry" />
        </mxCell>
        <mxCell id="0bBEa5JM60ahN9PU3Rlk-36" value="制证模板已绑定产品" style="rounded=0;whiteSpace=wrap;html=1;fillColor=#f0a30a;strokeColor=#BD7000;fontColor=#000000;" parent="1" vertex="1">
          <mxGeometry x="390" y="970" width="120" height="60" as="geometry" />
        </mxCell>
        <mxCell id="0bBEa5JM60ahN9PU3Rlk-37" value="制证已打印" style="rounded=0;whiteSpace=wrap;html=1;fillColor=#f0a30a;strokeColor=#BD7000;fontColor=#000000;" parent="1" vertex="1">
          <mxGeometry x="560" y="970" width="120" height="60" as="geometry" />
        </mxCell>
        <mxCell id="0bBEa5JM60ahN9PU3Rlk-38" value="创建制作信息&lt;div&gt;（同步+导入）&lt;/div&gt;" style="rounded=0;whiteSpace=wrap;html=1;fillColor=#f0a30a;strokeColor=#BD7000;fontColor=#000000;" parent="1" vertex="1">
          <mxGeometry x="80" y="970" width="120" height="60" as="geometry" />
        </mxCell>
        <mxCell id="0bBEa5JM60ahN9PU3Rlk-41" value="发票系统已配置" style="rounded=0;whiteSpace=wrap;html=1;fillColor=#f0a30a;strokeColor=#BD7000;fontColor=#000000;" parent="1" vertex="1">
          <mxGeometry x="80" y="720" width="120" height="60" as="geometry" />
        </mxCell>
        <mxCell id="0bBEa5JM60ahN9PU3Rlk-43" value="发票已开票" style="rounded=0;whiteSpace=wrap;html=1;fillColor=#f0a30a;strokeColor=#BD7000;fontColor=#000000;" parent="1" vertex="1">
          <mxGeometry x="900" y="1070" width="120" height="60" as="geometry" />
        </mxCell>
        <mxCell id="0bBEa5JM60ahN9PU3Rlk-44" value="发票已开红票" style="rounded=0;whiteSpace=wrap;html=1;fillColor=#f0a30a;strokeColor=#BD7000;fontColor=#000000;" parent="1" vertex="1">
          <mxGeometry x="240" y="720" width="120" height="60" as="geometry" />
        </mxCell>
        <mxCell id="0bBEa5JM60ahN9PU3Rlk-45" value="工作人员已登录" style="rounded=0;whiteSpace=wrap;html=1;fillColor=#f0a30a;strokeColor=#BD7000;fontColor=#000000;" parent="1" vertex="1">
          <mxGeometry x="80" y="240" width="120" height="60" as="geometry" />
        </mxCell>
        <mxCell id="yCPvtCTFaC7ZiINegcWP-1" value="观众登录" style="rounded=0;whiteSpace=wrap;html=1;fillColor=#f0a30a;strokeColor=#BD7000;fontColor=#000000;" parent="1" vertex="1">
          <mxGeometry x="80" y="1070" width="120" height="60" as="geometry" />
        </mxCell>
        <mxCell id="yCPvtCTFaC7ZiINegcWP-50" value="工作人员" style="rounded=0;whiteSpace=wrap;html=1;fillColor=#ffff88;strokeColor=#36393d;" parent="1" vertex="1">
          <mxGeometry x="19" y="230" width="56" height="80" as="geometry" />
        </mxCell>
        <mxCell id="yCPvtCTFaC7ZiINegcWP-51" value="观众" style="rounded=0;whiteSpace=wrap;html=1;fillColor=#ffff88;strokeColor=#36393d;" parent="1" vertex="1">
          <mxGeometry x="19" y="1060" width="56" height="80" as="geometry" />
        </mxCell>
        <mxCell id="yCPvtCTFaC7ZiINegcWP-52" value="主办" style="rounded=0;whiteSpace=wrap;html=1;fillColor=#ffff88;strokeColor=#36393d;" parent="1" vertex="1">
          <mxGeometry x="1049" y="1050" width="56" height="80" as="geometry" />
        </mxCell>
      </root>
    </mxGraphModel>
  </diagram>
  <diagram id="mOMKRaSUTow3cfw62VtZ" name="上下文">
    <mxGraphModel dx="1143" dy="615" grid="1" gridSize="10" guides="1" tooltips="1" connect="1" arrows="1" fold="1" page="1" pageScale="1" pageWidth="827" pageHeight="1169" math="0" shadow="0">
      <root>
        <mxCell id="0" />
        <mxCell id="1" parent="0" />
        <mxCell id="EqSKpXOvU9lYXuKBLG75-1" value="" style="group;movable=0;resizable=0;rotatable=0;deletable=0;editable=0;locked=1;connectable=0;" vertex="1" connectable="0" parent="1">
          <mxGeometry x="110" y="30" width="480" height="160" as="geometry" />
        </mxCell>
        <mxCell id="EqSKpXOvU9lYXuKBLG75-41" value="" style="ellipse;whiteSpace=wrap;html=1;" vertex="1" parent="1">
          <mxGeometry x="50" y="1309" width="380" height="280" as="geometry" />
        </mxCell>
        <mxCell id="EqSKpXOvU9lYXuKBLG75-42" value="工作人员上下文" style="text;html=1;align=center;verticalAlign=middle;whiteSpace=wrap;rounded=0;fontStyle=1" vertex="1" parent="1">
          <mxGeometry x="195" y="1338" width="90" height="30" as="geometry" />
        </mxCell>
        <mxCell id="EqSKpXOvU9lYXuKBLG75-43" value="" style="ellipse;whiteSpace=wrap;html=1;" vertex="1" parent="1">
          <mxGeometry x="470" y="1270" width="380" height="280" as="geometry" />
        </mxCell>
        <mxCell id="EqSKpXOvU9lYXuKBLG75-44" value="展会上下文" style="text;html=1;align=center;verticalAlign=middle;whiteSpace=wrap;rounded=0;fontStyle=1" vertex="1" parent="1">
          <mxGeometry x="610" y="1309" width="90" height="30" as="geometry" />
        </mxCell>
        <mxCell id="EqSKpXOvU9lYXuKBLG75-45" value="&amp;nbsp;展会已创建" style="rounded=0;whiteSpace=wrap;html=1;fillColor=#f0a30a;strokeColor=#BD7000;fontColor=#000000;" vertex="1" parent="1">
          <mxGeometry x="530" y="1350" width="120" height="60" as="geometry" />
        </mxCell>
        <mxCell id="EqSKpXOvU9lYXuKBLG75-46" value="展会已设置模块服务&lt;div&gt;(观众、展商、媒体、嘉宾)&lt;/div&gt;" style="rounded=0;whiteSpace=wrap;html=1;fillColor=#f0a30a;strokeColor=#BD7000;fontColor=#000000;" vertex="1" parent="1">
          <mxGeometry x="670" y="1350" width="120" height="60" as="geometry" />
        </mxCell>
        <mxCell id="EqSKpXOvU9lYXuKBLG75-47" value="展会已发布" style="rounded=0;whiteSpace=wrap;html=1;fillColor=#f0a30a;strokeColor=#BD7000;fontColor=#000000;" vertex="1" parent="1">
          <mxGeometry x="530" y="1430" width="120" height="60" as="geometry" />
        </mxCell>
        <mxCell id="EqSKpXOvU9lYXuKBLG75-48" value="展会已关闭" style="rounded=0;whiteSpace=wrap;html=1;fillColor=#f0a30a;strokeColor=#BD7000;fontColor=#000000;" vertex="1" parent="1">
          <mxGeometry x="670" y="1430" width="120" height="60" as="geometry" />
        </mxCell>
        <mxCell id="EqSKpXOvU9lYXuKBLG75-49" value="" style="ellipse;whiteSpace=wrap;html=1;" vertex="1" parent="1">
          <mxGeometry x="965" y="1250" width="380" height="310" as="geometry" />
        </mxCell>
        <mxCell id="EqSKpXOvU9lYXuKBLG75-50" value="观众管理下文" style="text;html=1;align=center;verticalAlign=middle;whiteSpace=wrap;rounded=0;fontStyle=1" vertex="1" parent="1">
          <mxGeometry x="1110" y="1260" width="90" height="30" as="geometry" />
        </mxCell>
        <mxCell id="EqSKpXOvU9lYXuKBLG75-52" value="" style="ellipse;whiteSpace=wrap;html=1;" vertex="1" parent="1">
          <mxGeometry x="890" y="1600" width="560" height="470" as="geometry" />
        </mxCell>
        <mxCell id="EqSKpXOvU9lYXuKBLG75-53" value="观众报名下文" style="text;html=1;align=center;verticalAlign=middle;whiteSpace=wrap;rounded=0;fontStyle=1" vertex="1" parent="1">
          <mxGeometry x="1120" y="1630" width="90" height="30" as="geometry" />
        </mxCell>
        <mxCell id="EqSKpXOvU9lYXuKBLG75-54" value="&amp;nbsp;观众服务已设置产品" style="rounded=0;whiteSpace=wrap;html=1;fillColor=#f0a30a;strokeColor=#BD7000;fontColor=#000000;" vertex="1" parent="1">
          <mxGeometry x="1160" y="1300" width="120" height="60" as="geometry" />
        </mxCell>
        <mxCell id="EqSKpXOvU9lYXuKBLG75-55" value="&amp;nbsp;观众服务已开启" style="rounded=0;whiteSpace=wrap;html=1;fillColor=#f0a30a;strokeColor=#BD7000;fontColor=#000000;" vertex="1" parent="1">
          <mxGeometry x="1020" y="1440" width="120" height="60" as="geometry" />
        </mxCell>
        <mxCell id="EqSKpXOvU9lYXuKBLG75-56" value="&amp;nbsp;观众服务已设置报名表" style="rounded=0;whiteSpace=wrap;html=1;fillColor=#f0a30a;strokeColor=#BD7000;fontColor=#000000;" vertex="1" parent="1">
          <mxGeometry x="1020" y="1370" width="120" height="60" as="geometry" />
        </mxCell>
        <mxCell id="EqSKpXOvU9lYXuKBLG75-57" value="&amp;nbsp;报名表已设置选项" style="rounded=0;whiteSpace=wrap;html=1;fillColor=#f0a30a;strokeColor=#BD7000;fontColor=#000000;" vertex="1" parent="1">
          <mxGeometry x="1160" y="1370" width="120" height="60" as="geometry" />
        </mxCell>
        <mxCell id="EqSKpXOvU9lYXuKBLG75-58" value="&amp;nbsp;观众服务已关闭" style="rounded=0;whiteSpace=wrap;html=1;fillColor=#f0a30a;strokeColor=#BD7000;fontColor=#000000;" vertex="1" parent="1">
          <mxGeometry x="1160" y="1440" width="120" height="60" as="geometry" />
        </mxCell>
        <mxCell id="EqSKpXOvU9lYXuKBLG75-59" value="观众已设置模块服务&lt;div&gt;（二要素、三要素、人像对比、代人注册）&lt;/div&gt;" style="rounded=0;whiteSpace=wrap;html=1;fillColor=#f0a30a;strokeColor=#BD7000;fontColor=#000000;" vertex="1" parent="1">
          <mxGeometry x="1020" y="1300" width="120" height="60" as="geometry" />
        </mxCell>
        <mxCell id="EqSKpXOvU9lYXuKBLG75-60" value="观众提交报名" style="rounded=0;whiteSpace=wrap;html=1;fillColor=#f0a30a;strokeColor=#BD7000;fontColor=#000000;" vertex="1" parent="1">
          <mxGeometry x="1110" y="1700" width="120" height="60" as="geometry" />
        </mxCell>
        <mxCell id="EqSKpXOvU9lYXuKBLG75-61" value="管理员工审核报名" style="rounded=0;whiteSpace=wrap;html=1;fillColor=#f0a30a;strokeColor=#BD7000;fontColor=#000000;" vertex="1" parent="1">
          <mxGeometry x="940" y="1900" width="120" height="60" as="geometry" />
        </mxCell>
        <mxCell id="EqSKpXOvU9lYXuKBLG75-62" value="审核分发二维码" style="rounded=0;whiteSpace=wrap;html=1;fillColor=#f0a30a;strokeColor=#BD7000;fontColor=#000000;" vertex="1" parent="1">
          <mxGeometry x="1105" y="1900" width="120" height="60" as="geometry" />
        </mxCell>
        <mxCell id="EqSKpXOvU9lYXuKBLG75-63" value="审核同步至票证服务" style="rounded=0;whiteSpace=wrap;html=1;fillColor=#f0a30a;strokeColor=#BD7000;fontColor=#000000;" vertex="1" parent="1">
          <mxGeometry x="1275" y="1900" width="120" height="60" as="geometry" />
        </mxCell>
        <mxCell id="EqSKpXOvU9lYXuKBLG75-64" value="创建支付订单" style="rounded=0;whiteSpace=wrap;html=1;fillColor=#f0a30a;strokeColor=#BD7000;fontColor=#000000;" vertex="1" parent="1">
          <mxGeometry x="1270" y="1700" width="120" height="60" as="geometry" />
        </mxCell>
        <mxCell id="EqSKpXOvU9lYXuKBLG75-65" value="订单已支付" style="rounded=0;whiteSpace=wrap;html=1;fillColor=#f0a30a;strokeColor=#BD7000;fontColor=#000000;" vertex="1" parent="1">
          <mxGeometry x="935" y="1800" width="120" height="60" as="geometry" />
        </mxCell>
        <mxCell id="EqSKpXOvU9lYXuKBLG75-66" value="订单已取消" style="rounded=0;whiteSpace=wrap;html=1;fillColor=#f0a30a;strokeColor=#BD7000;fontColor=#000000;" vertex="1" parent="1">
          <mxGeometry x="1105" y="1800" width="120" height="60" as="geometry" />
        </mxCell>
        <mxCell id="EqSKpXOvU9lYXuKBLG75-67" value="发票已开票" style="rounded=0;whiteSpace=wrap;html=1;fillColor=#f0a30a;strokeColor=#BD7000;fontColor=#000000;" vertex="1" parent="1">
          <mxGeometry x="1275" y="1800" width="120" height="60" as="geometry" />
        </mxCell>
        <mxCell id="EqSKpXOvU9lYXuKBLG75-68" value="观众登录" style="rounded=0;whiteSpace=wrap;html=1;fillColor=#f0a30a;strokeColor=#BD7000;fontColor=#000000;" vertex="1" parent="1">
          <mxGeometry x="950" y="1700" width="120" height="60" as="geometry" />
        </mxCell>
        <mxCell id="EqSKpXOvU9lYXuKBLG75-69" value="工作人员已登录" style="rounded=0;whiteSpace=wrap;html=1;fillColor=#f0a30a;strokeColor=#BD7000;fontColor=#000000;" vertex="1" parent="1">
          <mxGeometry x="120" y="1400" width="120" height="60" as="geometry" />
        </mxCell>
        <mxCell id="EqSKpXOvU9lYXuKBLG75-70" value="" style="ellipse;whiteSpace=wrap;html=1;" vertex="1" parent="1">
          <mxGeometry x="104" y="1695" width="380" height="280" as="geometry" />
        </mxCell>
        <mxCell id="EqSKpXOvU9lYXuKBLG75-71" value="支付上下文" style="text;html=1;align=center;verticalAlign=middle;whiteSpace=wrap;rounded=0;fontStyle=1" vertex="1" parent="1">
          <mxGeometry x="234" y="1730" width="90" height="30" as="geometry" />
        </mxCell>
        <mxCell id="EqSKpXOvU9lYXuKBLG75-72" value="" style="ellipse;whiteSpace=wrap;html=1;" vertex="1" parent="1">
          <mxGeometry x="210" y="2040" width="380" height="280" as="geometry" />
        </mxCell>
        <mxCell id="EqSKpXOvU9lYXuKBLG75-73" value="发票上下文" style="text;html=1;align=center;verticalAlign=middle;whiteSpace=wrap;rounded=0;fontStyle=1" vertex="1" parent="1">
          <mxGeometry x="340" y="2075" width="90" height="30" as="geometry" />
        </mxCell>
        <mxCell id="EqSKpXOvU9lYXuKBLG75-74" value="" style="ellipse;whiteSpace=wrap;html=1;" vertex="1" parent="1">
          <mxGeometry x="690" y="2075" width="380" height="335" as="geometry" />
        </mxCell>
        <mxCell id="EqSKpXOvU9lYXuKBLG75-75" value="门票上下文" style="text;html=1;align=center;verticalAlign=middle;whiteSpace=wrap;rounded=0;fontStyle=1" vertex="1" parent="1">
          <mxGeometry x="820" y="2110" width="90" height="30" as="geometry" />
        </mxCell>
        <mxCell id="EqSKpXOvU9lYXuKBLG75-76" value="" style="ellipse;whiteSpace=wrap;html=1;" vertex="1" parent="1">
          <mxGeometry x="1200" y="2140" width="380" height="280" as="geometry" />
        </mxCell>
        <mxCell id="EqSKpXOvU9lYXuKBLG75-77" value="证件上下文" style="text;html=1;align=center;verticalAlign=middle;whiteSpace=wrap;rounded=0;fontStyle=1" vertex="1" parent="1">
          <mxGeometry x="1330" y="2175" width="90" height="30" as="geometry" />
        </mxCell>
        <mxCell id="EqSKpXOvU9lYXuKBLG75-78" value="支付已配置微信" style="rounded=0;whiteSpace=wrap;html=1;fillColor=#f0a30a;strokeColor=#BD7000;fontColor=#000000;" vertex="1" parent="1">
          <mxGeometry x="151" y="1802.5" width="120" height="60" as="geometry" />
        </mxCell>
        <mxCell id="EqSKpXOvU9lYXuKBLG75-79" value="支付已配置PayPal" style="rounded=0;whiteSpace=wrap;html=1;fillColor=#f0a30a;strokeColor=#BD7000;fontColor=#000000;" vertex="1" parent="1">
          <mxGeometry x="310" y="1807.5" width="120" height="60" as="geometry" />
        </mxCell>
        <mxCell id="EqSKpXOvU9lYXuKBLG75-80" value="支付已配置微信" style="rounded=0;whiteSpace=wrap;html=1;fillColor=#f0a30a;strokeColor=#BD7000;fontColor=#000000;" vertex="1" parent="1">
          <mxGeometry x="251" y="2140" width="120" height="60" as="geometry" />
        </mxCell>
        <mxCell id="EqSKpXOvU9lYXuKBLG75-81" value="支付已配置PayPal" style="rounded=0;whiteSpace=wrap;html=1;fillColor=#f0a30a;strokeColor=#BD7000;fontColor=#000000;" vertex="1" parent="1">
          <mxGeometry x="410" y="2145" width="120" height="60" as="geometry" />
        </mxCell>
        <mxCell id="EqSKpXOvU9lYXuKBLG75-82" value="门票已开启&lt;div&gt;（设置票证系统接口参数）&lt;/div&gt;" style="rounded=0;whiteSpace=wrap;html=1;fillColor=#f0a30a;strokeColor=#BD7000;fontColor=#000000;" vertex="1" parent="1">
          <mxGeometry x="730" y="2160" width="120" height="60" as="geometry" />
        </mxCell>
        <mxCell id="EqSKpXOvU9lYXuKBLG75-83" value="门票数据同步" style="rounded=0;whiteSpace=wrap;html=1;fillColor=#f0a30a;strokeColor=#BD7000;fontColor=#000000;" vertex="1" parent="1">
          <mxGeometry x="870" y="2160" width="120" height="60" as="geometry" />
        </mxCell>
        <mxCell id="EqSKpXOvU9lYXuKBLG75-84" value="门票数据下单" style="rounded=0;whiteSpace=wrap;html=1;fillColor=#f0a30a;strokeColor=#BD7000;fontColor=#000000;" vertex="1" parent="1">
          <mxGeometry x="740" y="2240" width="120" height="60" as="geometry" />
        </mxCell>
        <mxCell id="EqSKpXOvU9lYXuKBLG75-85" value="门票数据核销" style="rounded=0;whiteSpace=wrap;html=1;fillColor=#f0a30a;strokeColor=#BD7000;fontColor=#000000;" vertex="1" parent="1">
          <mxGeometry x="880" y="2240" width="120" height="60" as="geometry" />
        </mxCell>
        <mxCell id="EqSKpXOvU9lYXuKBLG75-86" value="门票证关闭" style="rounded=0;whiteSpace=wrap;html=1;fillColor=#f0a30a;strokeColor=#BD7000;fontColor=#000000;" vertex="1" parent="1">
          <mxGeometry x="830" y="2330" width="120" height="60" as="geometry" />
        </mxCell>
        <mxCell id="EqSKpXOvU9lYXuKBLG75-87" value="制证模板已设置" style="rounded=0;whiteSpace=wrap;html=1;fillColor=#f0a30a;strokeColor=#BD7000;fontColor=#000000;" vertex="1" parent="1">
          <mxGeometry x="1394" y="2212.5" width="120" height="60" as="geometry" />
        </mxCell>
        <mxCell id="EqSKpXOvU9lYXuKBLG75-88" value="制证模板已绑定产品" style="rounded=0;whiteSpace=wrap;html=1;fillColor=#f0a30a;strokeColor=#BD7000;fontColor=#000000;" vertex="1" parent="1">
          <mxGeometry x="1260" y="2290" width="120" height="60" as="geometry" />
        </mxCell>
        <mxCell id="EqSKpXOvU9lYXuKBLG75-89" value="制证已打印" style="rounded=0;whiteSpace=wrap;html=1;fillColor=#f0a30a;strokeColor=#BD7000;fontColor=#000000;" vertex="1" parent="1">
          <mxGeometry x="1420" y="2290" width="120" height="60" as="geometry" />
        </mxCell>
        <mxCell id="EqSKpXOvU9lYXuKBLG75-90" value="创建制作信息&lt;div&gt;（同步+导入）&lt;/div&gt;" style="rounded=0;whiteSpace=wrap;html=1;fillColor=#f0a30a;strokeColor=#BD7000;fontColor=#000000;" vertex="1" parent="1">
          <mxGeometry x="1240" y="2212.5" width="120" height="60" as="geometry" />
        </mxCell>
      </root>
    </mxGraphModel>
  </diagram>
  <diagram id="Q6kzoPTu2Xn-h64HlVNq" name="领域模型">
    <mxGraphModel dx="1143" dy="615" grid="1" gridSize="10" guides="1" tooltips="1" connect="1" arrows="1" fold="1" page="1" pageScale="1" pageWidth="827" pageHeight="1169" math="0" shadow="0">
      <root>
        <mxCell id="0" />
        <mxCell id="1" parent="0" />
        <mxCell id="C-nVrf0MM0xA3hMBVH0z-1" value="" style="group;movable=0;resizable=0;rotatable=0;deletable=0;editable=0;locked=1;connectable=0;" vertex="1" connectable="0" parent="1">
          <mxGeometry x="110" y="30" width="480" height="160" as="geometry" />
        </mxCell>
        <mxCell id="C-nVrf0MM0xA3hMBVH0z-32" value="" style="ellipse;whiteSpace=wrap;html=1;" vertex="1" parent="1">
          <mxGeometry x="130" y="290" width="380" height="280" as="geometry" />
        </mxCell>
        <mxCell id="C-nVrf0MM0xA3hMBVH0z-33" value="发票上下文" style="text;html=1;align=center;verticalAlign=middle;whiteSpace=wrap;rounded=0;fontStyle=1" vertex="1" parent="1">
          <mxGeometry x="260" y="325" width="90" height="30" as="geometry" />
        </mxCell>
        <mxCell id="C-nVrf0MM0xA3hMBVH0z-34" value="" style="ellipse;whiteSpace=wrap;html=1;" vertex="1" parent="1">
          <mxGeometry x="610" y="325" width="380" height="335" as="geometry" />
        </mxCell>
        <mxCell id="C-nVrf0MM0xA3hMBVH0z-35" value="门票上下文" style="text;html=1;align=center;verticalAlign=middle;whiteSpace=wrap;rounded=0;fontStyle=1" vertex="1" parent="1">
          <mxGeometry x="740" y="360" width="90" height="30" as="geometry" />
        </mxCell>
        <mxCell id="C-nVrf0MM0xA3hMBVH0z-36" value="" style="ellipse;whiteSpace=wrap;html=1;" vertex="1" parent="1">
          <mxGeometry x="1120" y="390" width="380" height="280" as="geometry" />
        </mxCell>
        <mxCell id="C-nVrf0MM0xA3hMBVH0z-37" value="证件上下文" style="text;html=1;align=center;verticalAlign=middle;whiteSpace=wrap;rounded=0;fontStyle=1" vertex="1" parent="1">
          <mxGeometry x="1250" y="425" width="90" height="30" as="geometry" />
        </mxCell>
        <mxCell id="C-nVrf0MM0xA3hMBVH0z-40" value="支付已配置微信" style="rounded=0;whiteSpace=wrap;html=1;fillColor=#f0a30a;strokeColor=#BD7000;fontColor=#000000;" vertex="1" parent="1">
          <mxGeometry x="171" y="390" width="120" height="60" as="geometry" />
        </mxCell>
        <mxCell id="C-nVrf0MM0xA3hMBVH0z-41" value="支付已配置PayPal" style="rounded=0;whiteSpace=wrap;html=1;fillColor=#f0a30a;strokeColor=#BD7000;fontColor=#000000;" vertex="1" parent="1">
          <mxGeometry x="330" y="395" width="120" height="60" as="geometry" />
        </mxCell>
        <mxCell id="C-nVrf0MM0xA3hMBVH0z-42" value="门票已开启&lt;div&gt;（设置票证系统接口参数）&lt;/div&gt;" style="rounded=0;whiteSpace=wrap;html=1;fillColor=#f0a30a;strokeColor=#BD7000;fontColor=#000000;" vertex="1" parent="1">
          <mxGeometry x="650" y="410" width="120" height="60" as="geometry" />
        </mxCell>
        <mxCell id="C-nVrf0MM0xA3hMBVH0z-43" value="门票数据同步" style="rounded=0;whiteSpace=wrap;html=1;fillColor=#f0a30a;strokeColor=#BD7000;fontColor=#000000;" vertex="1" parent="1">
          <mxGeometry x="790" y="410" width="120" height="60" as="geometry" />
        </mxCell>
        <mxCell id="C-nVrf0MM0xA3hMBVH0z-44" value="门票数据下单" style="rounded=0;whiteSpace=wrap;html=1;fillColor=#f0a30a;strokeColor=#BD7000;fontColor=#000000;" vertex="1" parent="1">
          <mxGeometry x="660" y="490" width="120" height="60" as="geometry" />
        </mxCell>
        <mxCell id="C-nVrf0MM0xA3hMBVH0z-45" value="门票数据核销" style="rounded=0;whiteSpace=wrap;html=1;fillColor=#f0a30a;strokeColor=#BD7000;fontColor=#000000;" vertex="1" parent="1">
          <mxGeometry x="800" y="490" width="120" height="60" as="geometry" />
        </mxCell>
        <mxCell id="C-nVrf0MM0xA3hMBVH0z-46" value="门票证关闭" style="rounded=0;whiteSpace=wrap;html=1;fillColor=#f0a30a;strokeColor=#BD7000;fontColor=#000000;" vertex="1" parent="1">
          <mxGeometry x="750" y="580" width="120" height="60" as="geometry" />
        </mxCell>
        <mxCell id="C-nVrf0MM0xA3hMBVH0z-47" value="制证模板已设置" style="rounded=0;whiteSpace=wrap;html=1;fillColor=#f0a30a;strokeColor=#BD7000;fontColor=#000000;" vertex="1" parent="1">
          <mxGeometry x="1314" y="462.5" width="120" height="60" as="geometry" />
        </mxCell>
        <mxCell id="C-nVrf0MM0xA3hMBVH0z-48" value="制证模板已绑定产品" style="rounded=0;whiteSpace=wrap;html=1;fillColor=#f0a30a;strokeColor=#BD7000;fontColor=#000000;" vertex="1" parent="1">
          <mxGeometry x="1180" y="540" width="120" height="60" as="geometry" />
        </mxCell>
        <mxCell id="C-nVrf0MM0xA3hMBVH0z-49" value="制证已打印" style="rounded=0;whiteSpace=wrap;html=1;fillColor=#f0a30a;strokeColor=#BD7000;fontColor=#000000;" vertex="1" parent="1">
          <mxGeometry x="1340" y="540" width="120" height="60" as="geometry" />
        </mxCell>
        <mxCell id="C-nVrf0MM0xA3hMBVH0z-50" value="创建制作信息&lt;div&gt;（同步+导入）&lt;/div&gt;" style="rounded=0;whiteSpace=wrap;html=1;fillColor=#f0a30a;strokeColor=#BD7000;fontColor=#000000;" vertex="1" parent="1">
          <mxGeometry x="1160" y="462.5" width="120" height="60" as="geometry" />
        </mxCell>
        <mxCell id="C-nVrf0MM0xA3hMBVH0z-51" value="" style="group" vertex="1" connectable="0" parent="1">
          <mxGeometry x="70" y="660" width="500" height="410" as="geometry" />
        </mxCell>
        <mxCell id="C-nVrf0MM0xA3hMBVH0z-52" value="" style="ellipse;whiteSpace=wrap;html=1;" vertex="1" parent="C-nVrf0MM0xA3hMBVH0z-51">
          <mxGeometry width="500" height="410" as="geometry" />
        </mxCell>
        <mxCell id="C-nVrf0MM0xA3hMBVH0z-53" value="报名表聚合" style="text;html=1;align=center;verticalAlign=middle;whiteSpace=wrap;rounded=0;" vertex="1" parent="C-nVrf0MM0xA3hMBVH0z-51">
          <mxGeometry x="190" y="10" width="120" height="30" as="geometry" />
        </mxCell>
        <mxCell id="C-nVrf0MM0xA3hMBVH0z-54" value="报名表" style="rounded=1;whiteSpace=wrap;html=1;fillColor=#dae8fc;strokeColor=#6c8ebf;" vertex="1" parent="C-nVrf0MM0xA3hMBVH0z-51">
          <mxGeometry x="106" y="50" width="120" height="60" as="geometry" />
        </mxCell>
        <mxCell id="C-nVrf0MM0xA3hMBVH0z-55" value="报名记录" style="rounded=1;whiteSpace=wrap;html=1;fillColor=#d5e8d4;strokeColor=#82b366;" vertex="1" parent="C-nVrf0MM0xA3hMBVH0z-51">
          <mxGeometry x="106" y="140" width="120" height="60" as="geometry" />
        </mxCell>
        <mxCell id="C-nVrf0MM0xA3hMBVH0z-56" value="选项" style="rounded=1;whiteSpace=wrap;html=1;fillColor=#fff2cc;strokeColor=#d6b656;" vertex="1" parent="C-nVrf0MM0xA3hMBVH0z-51">
          <mxGeometry x="266" y="140" width="120" height="60" as="geometry" />
        </mxCell>
        <mxCell id="C-nVrf0MM0xA3hMBVH0z-57" value="配置" style="rounded=1;whiteSpace=wrap;html=1;fillColor=#fff2cc;strokeColor=#d6b656;" vertex="1" parent="C-nVrf0MM0xA3hMBVH0z-51">
          <mxGeometry x="266" y="50" width="120" height="60" as="geometry" />
        </mxCell>
        <mxCell id="C-nVrf0MM0xA3hMBVH0z-58" value="值对象" style="rounded=1;whiteSpace=wrap;html=1;fillColor=#fff2cc;strokeColor=#d6b656;" vertex="1" parent="1">
          <mxGeometry x="440" y="60" width="120" height="60" as="geometry" />
        </mxCell>
        <mxCell id="C-nVrf0MM0xA3hMBVH0z-59" value="聚合根" style="rounded=1;whiteSpace=wrap;html=1;fillColor=#dae8fc;strokeColor=#6c8ebf;" vertex="1" parent="1">
          <mxGeometry x="80" y="60" width="120" height="60" as="geometry" />
        </mxCell>
        <mxCell id="C-nVrf0MM0xA3hMBVH0z-60" value="实体" style="rounded=1;whiteSpace=wrap;html=1;fillColor=#d5e8d4;strokeColor=#82b366;" vertex="1" parent="1">
          <mxGeometry x="250" y="60" width="120" height="60" as="geometry" />
        </mxCell>
        <mxCell id="C-nVrf0MM0xA3hMBVH0z-61" value="" style="ellipse;whiteSpace=wrap;html=1;" vertex="1" parent="1">
          <mxGeometry x="645" y="660" width="500" height="410" as="geometry" />
        </mxCell>
        <mxCell id="C-nVrf0MM0xA3hMBVH0z-62" value="展会聚合" style="text;html=1;align=center;verticalAlign=middle;whiteSpace=wrap;rounded=0;" vertex="1" parent="1">
          <mxGeometry x="865" y="680" width="60" height="30" as="geometry" />
        </mxCell>
        <mxCell id="C-nVrf0MM0xA3hMBVH0z-63" value="展会" style="rounded=1;whiteSpace=wrap;html=1;fillColor=#dae8fc;strokeColor=#6c8ebf;" vertex="1" parent="1">
          <mxGeometry x="740" y="730" width="120" height="60" as="geometry" />
        </mxCell>
        <mxCell id="C-nVrf0MM0xA3hMBVH0z-64" value="展会模块" style="rounded=1;whiteSpace=wrap;html=1;fillColor=#fff2cc;strokeColor=#d6b656;" vertex="1" parent="1">
          <mxGeometry x="920" y="725" width="120" height="60" as="geometry" />
        </mxCell>
        <mxCell id="C-nVrf0MM0xA3hMBVH0z-65" value="展馆" style="rounded=1;whiteSpace=wrap;html=1;fillColor=#fff2cc;strokeColor=#d6b656;" vertex="1" parent="1">
          <mxGeometry x="740" y="820" width="120" height="60" as="geometry" />
        </mxCell>
        <mxCell id="C-nVrf0MM0xA3hMBVH0z-66" value="产品" style="rounded=1;whiteSpace=wrap;html=1;fillColor=#d5e8d4;strokeColor=#82b366;" vertex="1" parent="1">
          <mxGeometry x="920" y="820" width="120" height="60" as="geometry" />
        </mxCell>
        <mxCell id="C-nVrf0MM0xA3hMBVH0z-67" value="" style="ellipse;whiteSpace=wrap;html=1;" vertex="1" parent="1">
          <mxGeometry x="70" y="1090" width="500" height="410" as="geometry" />
        </mxCell>
        <mxCell id="C-nVrf0MM0xA3hMBVH0z-68" value="支付聚合" style="text;html=1;align=center;verticalAlign=middle;whiteSpace=wrap;rounded=0;" vertex="1" parent="1">
          <mxGeometry x="291" y="1100" width="60" height="30" as="geometry" />
        </mxCell>
        <mxCell id="C-nVrf0MM0xA3hMBVH0z-69" value="支付单" style="rounded=1;whiteSpace=wrap;html=1;fillColor=#dae8fc;strokeColor=#6c8ebf;" vertex="1" parent="1">
          <mxGeometry x="180" y="1143" width="120" height="60" as="geometry" />
        </mxCell>
        <mxCell id="C-nVrf0MM0xA3hMBVH0z-70" value="配置" style="rounded=1;whiteSpace=wrap;html=1;fillColor=#fff2cc;strokeColor=#d6b656;" vertex="1" parent="1">
          <mxGeometry x="340" y="1143" width="120" height="60" as="geometry" />
        </mxCell>
        <mxCell id="C-nVrf0MM0xA3hMBVH0z-71" value="" style="ellipse;whiteSpace=wrap;html=1;" vertex="1" parent="1">
          <mxGeometry x="650" y="1100" width="500" height="410" as="geometry" />
        </mxCell>
        <mxCell id="C-nVrf0MM0xA3hMBVH0z-72" value="发票聚合" style="text;html=1;align=center;verticalAlign=middle;whiteSpace=wrap;rounded=0;" vertex="1" parent="1">
          <mxGeometry x="870" y="1113" width="60" height="30" as="geometry" />
        </mxCell>
        <mxCell id="C-nVrf0MM0xA3hMBVH0z-73" value="发票" style="rounded=1;whiteSpace=wrap;html=1;fillColor=#dae8fc;strokeColor=#6c8ebf;" vertex="1" parent="1">
          <mxGeometry x="740" y="1150" width="120" height="60" as="geometry" />
        </mxCell>
        <mxCell id="C-nVrf0MM0xA3hMBVH0z-74" value="红票" style="rounded=1;whiteSpace=wrap;html=1;fillColor=#fff2cc;strokeColor=#d6b656;" vertex="1" parent="1">
          <mxGeometry x="740" y="1240" width="120" height="60" as="geometry" />
        </mxCell>
        <mxCell id="C-nVrf0MM0xA3hMBVH0z-75" value="" style="ellipse;whiteSpace=wrap;html=1;" vertex="1" parent="1">
          <mxGeometry x="1195" y="660" width="500" height="410" as="geometry" />
        </mxCell>
        <mxCell id="C-nVrf0MM0xA3hMBVH0z-76" value="证件聚合" style="text;html=1;align=center;verticalAlign=middle;whiteSpace=wrap;rounded=0;" vertex="1" parent="1">
          <mxGeometry x="1415" y="680" width="60" height="30" as="geometry" />
        </mxCell>
        <mxCell id="C-nVrf0MM0xA3hMBVH0z-77" value="证件" style="rounded=1;whiteSpace=wrap;html=1;fillColor=#dae8fc;strokeColor=#6c8ebf;" vertex="1" parent="1">
          <mxGeometry x="1300" y="720" width="120" height="60" as="geometry" />
        </mxCell>
        <mxCell id="C-nVrf0MM0xA3hMBVH0z-78" value="模板" style="rounded=1;whiteSpace=wrap;html=1;fillColor=#fff2cc;strokeColor=#d6b656;" vertex="1" parent="1">
          <mxGeometry x="1480" y="710" width="120" height="60" as="geometry" />
        </mxCell>
        <mxCell id="C-nVrf0MM0xA3hMBVH0z-79" value="信息" style="rounded=1;whiteSpace=wrap;html=1;fillColor=#fff2cc;strokeColor=#d6b656;" vertex="1" parent="1">
          <mxGeometry x="1300" y="810" width="120" height="60" as="geometry" />
        </mxCell>
        <mxCell id="C-nVrf0MM0xA3hMBVH0z-80" value="支付记录" style="rounded=1;whiteSpace=wrap;html=1;fillColor=#d5e8d4;strokeColor=#82b366;" vertex="1" parent="1">
          <mxGeometry x="180" y="1230" width="120" height="60" as="geometry" />
        </mxCell>
        <mxCell id="C-nVrf0MM0xA3hMBVH0z-81" value="" style="ellipse;whiteSpace=wrap;html=1;" vertex="1" parent="1">
          <mxGeometry x="1195" y="1110" width="500" height="410" as="geometry" />
        </mxCell>
        <mxCell id="C-nVrf0MM0xA3hMBVH0z-82" value="门票聚合" style="text;html=1;align=center;verticalAlign=middle;whiteSpace=wrap;rounded=0;" vertex="1" parent="1">
          <mxGeometry x="1415" y="1120" width="60" height="30" as="geometry" />
        </mxCell>
        <mxCell id="C-nVrf0MM0xA3hMBVH0z-83" value="票证" style="rounded=1;whiteSpace=wrap;html=1;fillColor=#dae8fc;strokeColor=#6c8ebf;" vertex="1" parent="1">
          <mxGeometry x="1295" y="1160" width="120" height="60" as="geometry" />
        </mxCell>
        <mxCell id="C-nVrf0MM0xA3hMBVH0z-84" value="入场记录" style="rounded=1;whiteSpace=wrap;html=1;fillColor=#d5e8d4;strokeColor=#82b366;" vertex="1" parent="1">
          <mxGeometry x="1295" y="1265" width="120" height="60" as="geometry" />
        </mxCell>
        <mxCell id="C-nVrf0MM0xA3hMBVH0z-85" value="配置" style="rounded=1;whiteSpace=wrap;html=1;fillColor=#fff2cc;strokeColor=#d6b656;" vertex="1" parent="1">
          <mxGeometry x="1475" y="1160" width="120" height="60" as="geometry" />
        </mxCell>
        <mxCell id="C-nVrf0MM0xA3hMBVH0z-86" value="核销信息" style="rounded=1;whiteSpace=wrap;html=1;fillColor=#fff2cc;strokeColor=#d6b656;" vertex="1" parent="1">
          <mxGeometry x="1475" y="1380" width="120" height="60" as="geometry" />
        </mxCell>
        <mxCell id="C-nVrf0MM0xA3hMBVH0z-87" value="门票记录" style="rounded=1;whiteSpace=wrap;html=1;fillColor=#d5e8d4;strokeColor=#82b366;" vertex="1" parent="1">
          <mxGeometry x="1295" y="1380" width="120" height="60" as="geometry" />
        </mxCell>
      </root>
    </mxGraphModel>
  </diagram>
</mxfile>
